#!OML:ASF I:\Actors\actors\Patient Classification 1\Patient 1\Session 1\Subject1.ASF
:FULLY-SPECIFIED
:DEGREES
1464
root 0.39564 17.4669 9.71222 9.54575 3.58262 -9.47102
lowerback -1.53138 -0.605758 8.47375
upperback -10.0807 -0.306374 2.01748
thorax -9.9745 -0.767505 -2.53605
lowerneck -14.6814 -3.72956 -2.07364
upperneck 33.9964 -6.51667 4.16317
head 14.3341 -2.53398 0.976469
rclavicle -1.18774e-014 4.37326e-015
rhumerus -54.6341 -27.8392 -61.0129
rradius 20.0735
rwrist 37.4524
rhand 7.98135 -31.8534
rfingers 7.12502
rthumb 33.2093 -58.8093
lclavicle -1.18774e-014 4.37326e-015
lhumerus -66.8465 42.7015 34.9011
lradius 15.5639
lwrist -37.8518
lhand -24.95 -8.39184
lfingers 7.12502
lthumb 1.5599 21.5822
rfemur -3.23121 23.7746 28.4348
rtibia 3.16266
rfoot -13.5611 -28.3642
rtoes 8.77623
lfemur 363.018 -40.1127 -368.172
ltibia -4.31573
lfoot -373.419 404.858
ltoes -1.35592
1465
root 0.407703 17.4655 9.71065 9.49516 3.5149 -9.4485
lowerback -1.59637 -0.60247 8.39263
upperback -10.0683 -0.31307 2.02237
thorax -9.91872 -0.761513 -2.48674
lowerneck -14.526 -3.71394 -2.1679
upperneck 34.0432 -6.52248 4.30992
head 14.3315 -2.53097 1.05494
rclavicle -4.27387e-015 9.14409e-015
rhumerus -55.1701 -29.3795 -59.2278
rradius 19.4887
rwrist 38.9797
rhand 9.34553 -32.2714
rfingers 7.12502
rthumb 34.5053 -58.9415
lclavicle -4.27387e-015 9.14409e-015
lhumerus -66.5178 42.311 35.4988
lradius 15.2521
lwrist -39.1527
lhand -23.1509 -7.484
lfingers 7.12502
lthumb 3.29734 22.4702
rfemur -3.15418 23.7296 28.3853
rtibia 3.14363
rfoot -13.5059 -28.3014
rtoes 8.6358
lfemur 363.157 -40.0853 -368.355
ltibia -4.32084
lfoot -373.494 404.864
ltoes -1.24981
1466
root 0.419535 17.4632 9.70562 9.47028 3.42846 -9.37585
lowerback -1.65339 -0.608692 8.2506
upperback -10.0657 -0.332505 2.03947
thorax -9.87788 -0.756782 -2.38946
lowerneck -14.399 -3.68636 -2.2263
upperneck 34.1194 -6.47749 4.33035
head 14.3386 -2.51779 1.08397
rclavicle 6.16232e-015 -2.5842e-015
rhumerus -55.6241 -30.683 -57.6541
rradius 19.0077
rwrist 40.2441
rhand 10.6024 -33.0573
rfingers 7.12502
rthumb 35.6975 -59.4476
lclavicle 6.16232e-015 -2.5842e-015
lhumerus -64.8496 41.1071 38.4611
lradius 15.352
lwrist -38.7724
lhand -21.729 -4.2702
lfingers 7.12502
lthumb 4.67046 25.6583
rfemur -3.15271 23.7293 28.2588
rtibia 3.17733
rfoot -13.4382 -28.2626
rtoes 8.31447
lfemur 363.177 -39.9934 -368.522
ltibia -4.26919
lfoot -373.611 404.792
ltoes -1.01981
1467
root 0.431091 17.4623 9.69734 9.4127 3.34509 -9.33988
lowerback -1.64616 -0.580217 8.15546
upperback -10.0361 -0.297684 2.05804
thorax -9.84049 -0.728728 -2.32028
lowerneck -14.3844 -3.68475 -2.25507
upperneck 34.2438 -6.46521 4.30356
head 14.3915 -2.51785 1.08147
rclavicle 1.59028e-015 -9.34288e-015
rhumerus -56.0664 -31.919 -56.1681
rradius 18.5996
rwrist 41.503
rhand 11.8808 -33.7772
rfingers 7.12502
rthumb 36.908 -59.8654
lclavicle 1.59028e-015 -9.34288e-015
lhumerus -64.6388 40.9541 38.9739
lradius 15.189
lwrist -39.9138
lhand -20.1589 -4.21813
lfingers 7.12502
lthumb 6.18637 25.6715
rfemur -3.12927 23.7957 28.1904
rtibia 3.22807
rfoot -13.4031 -28.2684
rtoes 8.07362
lfemur 363.188 -39.7947 -368.618
ltibia -4.241
lfoot -373.576 404.642
ltoes -0.985851
1468
root 0.442032 17.4623 9.69052 9.32838 3.28796 -9.40925
lowerback -1.65563 -0.519128 8.16495
upperback -9.9893 -0.217929 2.07057
thorax -9.77296 -0.686307 -2.31914
lowerneck -14.35 -3.71505 -2.17221
upperneck 34.3673 -6.52912 4.26054
head 14.4382 -2.53855 1.0405
rclavicle 1.20762e-014 -2.127e-014
rhumerus -56.609 -33.184 -54.6416
rradius 18.1548
rwrist 43.0177
rhand 13.0549 -34.0415
rfingers 7.12502
rthumb 38.0177 -59.8359
lclavicle 1.20762e-014 -2.127e-014
lhumerus -64.8854 41.1324 38.5378
lradius 14.8398
lwrist -41.6699
lhand -18.721 -6.21029
lfingers 7.12502
lthumb 7.57446 23.6341
rfemur -3.03929 23.8503 28.2597
rtibia 3.22054
rfoot -13.3955 -28.2701
rtoes 8.079
lfemur 363.239 -39.5726 -368.6
ltibia -4.23906
lfoot -373.513 404.466
ltoes -1.02864
1469
root 0.452955 17.4614 9.68328 9.27293 3.23117 -9.5068
lowerback -1.7098 -0.481848 8.17884
upperback -9.95503 -0.172609 2.10506
thorax -9.69695 -0.66007 -2.29451
lowerneck -14.1036 -3.71575 -1.97752
upperneck 34.2693 -6.51698 4.07965
head 14.3199 -2.53936 0.939122
rclavicle 2.13197e-014 -2.8625e-014
rhumerus -57.1198 -34.2832 -53.2381
rradius 17.693
rwrist 44.6234
rhand 14.0626 -33.9799
rfingers 7.12502
rthumb 38.9685 -59.509
lclavicle 2.13197e-014 -2.8625e-014
lhumerus -64.7412 41.0605 38.7142
lradius 14.5488
lwrist -42.8579
lhand -17.5698 -7.37637
lfingers 7.12502
lthumb 8.68551 22.4249
rfemur -3.00242 23.8901 28.3364
rtibia 3.22168
rfoot -13.3948 -28.2499
rtoes 8.16326
lfemur 363.229 -39.4094 -368.521
ltibia -4.18693
lfoot -373.512 404.323
ltoes -0.884413
1470
root 0.464262 17.4602 9.67476 9.2298 3.14588 -9.52964
lowerback -1.75218 -0.453755 8.10617
upperback -9.92395 -0.141574 2.14039
thorax -9.6301 -0.634045 -2.21999
lowerneck -13.9957 -3.74532 -2.00617
upperneck 34.3493 -6.55637 4.07104
head 14.3345 -2.56205 0.936707
rclavicle 2.4699e-014 -4.79071e-014
rhumerus -57.4011 -34.9832 -52.3494
rradius 17.3742
rwrist 45.6947
rhand 14.8805 -33.9214
rfingers 7.12502
rthumb 39.7392 -59.2256
lclavicle 2.4699e-014 -4.79071e-014
lhumerus -64.5876 41.0624 38.9254
lradius 14.2336
lwrist -44.2796
lhand -16.7836 -8.06275
lfingers 7.12502
lthumb 9.44417 21.7056
rfemur -2.99911 23.9676 28.3189
rtibia 3.25453
rfoot -13.3761 -28.2523
rtoes 8.04291
lfemur 363.255 -39.4045 -368.582
ltibia -4.12227
lfoot -373.545 404.344
ltoes -0.679415
1471
root 0.475971 17.4602 9.6654 9.15926 3.05419 -9.50178
lowerback -1.73177 -0.414811 8.00409
upperback -9.89802 -0.0917037 2.1513
thorax -9.60386 -0.599055 -2.15585
lowerneck -14.0514 -3.79682 -2.10087
upperneck 34.6671 -6.64626 4.11859
head 14.5039 -2.59969 0.958483
rclavicle 3.57812e-015 -3.37934e-015
rhumerus -57.4993 -35.3504 -51.9425
rradius 17.1708
rwrist 46.195
rhand 15.4623 -33.8892
rfingers 7.12502
rthumb 40.2867 -59.0281
lclavicle 3.57812e-015 -3.37934e-015
lhumerus -64.6749 41.2775 38.6777
lradius 13.7345
lwrist -46.7036
lhand -16.7157 -9.21767
lfingers 7.12502
lthumb 9.50969 20.5477
rfemur -2.93669 24.0509 28.2603
rtibia 3.24655
rfoot -13.3554 -28.274
rtoes 7.94635
lfemur 363.382 -39.4756 -368.771
ltibia -4.09662
lfoot -373.686 404.432
ltoes -0.468324
1472
root 0.488133 17.4592 9.65612 9.08525 2.96385 -9.48954
lowerback -1.69417 -0.373073 7.96628
upperback -9.89197 -0.0343086 2.13929
thorax -9.61218 -0.568473 -2.15157
lowerneck -14.0692 -3.82195 -2.05581
upperneck 35.0558 -6.72857 4.12141
head 14.6914 -2.62099 0.940205
rclavicle -6.06293e-015 4.90998e-014
rhumerus -57.4187 -35.4319 -51.9567
rradius 16.9923
rwrist 46.3414
rhand 15.7503 -33.77
rfingers 7.12502
rthumb 40.5574 -58.8255
lclavicle -6.06293e-015 4.90998e-014
lhumerus -64.3791 41.2613 38.9401
lradius 13.2059
lwrist -49.0153
lhand -17.1871 -9.70985
lfingers 7.12502
lthumb 9.05477 20.0758
rfemur -2.86553 24.0989 28.216
rtibia 3.22788
rfoot -13.3611 -28.2398
rtoes 8.02833
lfemur 363.545 -39.5143 -368.942
ltibia -4.13601
lfoot -373.803 404.499
ltoes -0.307905
1473
root 0.499477 17.4579 9.64611 9.06073 2.88584 -9.49069
lowerback -1.72195 -0.337227 7.92693
upperback -9.89532 0.00926698 2.13412
thorax -9.59369 -0.543571 -2.13855
lowerneck -13.9764 -3.86748 -2.19444
upperneck 35.2941 -6.84794 4.31704
head 14.8043 -2.66126 1.02866
rclavicle 7.95139e-016 3.00165e-014
rhumerus -57.0953 -35.2415 -52.4322
rradius 16.8943
rwrist 46.1599
rhand 15.639 -33.5992
rfingers 7.12502
rthumb 40.4528 -58.687
lclavicle 7.95139e-016 3.00165e-014
lhumerus -63.5664 40.9439 39.991
lradius 12.7601
lwrist -50.7291
lhand -17.5944 -9.58237
lfingers 7.12502
lthumb 8.66177 20.2199
rfemur -2.89753 24.0987 28.1548
rtibia 3.26067
rfoot -13.3215 -28.1647
rtoes 7.94896
lfemur 363.629 -39.5201 -369.017
ltibia -4.23465
lfoot -373.705 404.58
ltoes -0.349543
1474
root 0.510377 17.458 9.63528 9.07232 2.84728 -9.48456
lowerback -1.78711 -0.2906 7.88126
upperback -9.89927 0.0630151 2.12293
thorax -9.55249 -0.51267 -2.12939
lowerneck -13.6725 -3.87782 -2.10506
upperneck 35.2054 -6.88469 4.31722
head 14.6903 -2.67279 1.01271
rclavicle 1.15792e-014 -3.24019e-014
rhumerus -56.6811 -34.9401 -53.1163
rradius 16.9243
rwrist 45.8486
rhand 15.3622 -33.4527
rfingers 7.12502
rthumb 40.1925 -58.6204
lclavicle 1.15792e-014 -3.24019e-014
lhumerus -61.2102 39.5145 43.5693
lradius 12.6686
lwrist -50.6399
lhand -17.5392 -7.54202
lfingers 7.12502
lthumb 8.71507 22.2581
rfemur -2.97628 24.0911 28.0695
rtibia 3.28324
rfoot -13.2674 -28.1425
rtoes 7.91659
lfemur 363.653 -39.6187 -369.059
ltibia -4.33789
lfoot -373.578 404.721
ltoes -0.367676
